<?xml version="1.0" encoding="UTF-8"?> <svg xmlns="http://www.w3.org/2000/svg" width="311" height="343" viewBox="0 0 311 343" fill="none"><g filter="url(#filter0_f_157_201)"><g filter="url(#filter1_di_157_201)"><circle cx="120.687" cy="159.418" r="109.5" transform="rotate(-68.4519 120.687 159.418)" fill="#96D7FF" fill-opacity="0.13" shape-rendering="crispEdges"></circle><circle cx="120.687" cy="159.418" r="109.5" transform="rotate(-68.4519 120.687 159.418)" stroke="url(#paint0_linear_157_201)" stroke-linejoin="round" shape-rendering="crispEdges"></circle></g><g filter="url(#filter2_f_157_201)"><path d="M110.204 63.5744C111.925 65.4932 111.447 54.1512 64.8655 103.072C55.5655 112.839 45.7384 122.212 39.9713 119.517C34.2042 116.822 31.9004 106.839 55.5875 86.1019C79.4845 69.1887 91.261 68.717 110.204 63.5744Z" fill="white"></path><path d="M36.2559 109.429C37.9087 104.041 43.0598 96.5929 54.1646 86.6912L55.2583 85.7255L55.278 85.7088L55.299 85.6939C79.2848 68.7178 91.1645 68.2256 110.073 63.0924L110.371 63.0116L110.528 63.1874C110.669 63.2051 110.82 63.2446 110.944 63.3345C111.015 63.3858 111.16 63.5158 111.18 63.739C111.204 64.0124 111.028 64.1899 110.888 64.2613C110.761 64.3262 110.635 64.3298 110.551 64.3227C110.46 64.3148 110.372 64.2899 110.293 64.2557C110.248 64.2365 110.204 64.2138 110.16 64.1871C109.94 64.2126 109.591 64.2871 109.074 64.4828C108.349 64.7575 107.324 65.2547 105.91 66.1237C100.242 69.607 88.5136 78.9608 65.2273 103.417C60.5783 108.299 55.77 113.113 51.3917 116.369C49.2029 117.996 47.0965 119.254 45.1503 119.93C43.2031 120.607 41.3619 120.719 39.7593 119.97C38.2199 119.251 36.8941 118.035 36.1835 116.262C35.4738 114.491 35.3996 112.221 36.2559 109.429Z" stroke="#96D7FF" stroke-opacity="0.18" style="mix-blend-mode:color-burn"></path></g><g filter="url(#filter3_f_157_201)"><path d="M70.3863 219.669C70.5426 218.637 67.1197 221.71 94.4207 223.665C99.8714 224.055 105.335 224.712 105.979 227.21C106.622 229.707 104.095 233.001 91.5062 230.939C80.0591 227.827 76.8764 224.267 70.3863 219.669Z" fill="white"></path><path d="M103.896 231.247C101.638 232.179 97.7442 232.468 91.4257 231.433L91.4003 231.428L91.3754 231.422C79.823 228.281 76.5585 224.654 70.0974 220.077L69.8458 219.899L69.8738 219.718C69.8491 219.66 69.829 219.593 69.8243 219.518C69.8198 219.446 69.8233 219.261 69.9772 219.11C70.1671 218.923 70.4086 218.947 70.5432 219.005C70.6648 219.058 70.7377 219.144 70.7756 219.199C70.8132 219.253 70.838 219.31 70.8551 219.363C70.9098 219.406 70.991 219.463 71.1091 219.53C71.3607 219.674 71.7624 219.86 72.3869 220.074C74.8983 220.935 80.8129 222.189 94.4564 223.166C97.1804 223.361 99.9482 223.625 102.122 224.161C103.209 224.43 104.178 224.774 104.928 225.23C105.679 225.687 106.258 226.289 106.463 227.085C106.651 227.814 106.61 228.621 106.198 229.376C105.787 230.128 105.035 230.776 103.896 231.247Z" stroke="#96D7FF" stroke-opacity="0.18" style="mix-blend-mode:color-burn"></path></g><g filter="url(#filter4_f_157_201)"><path d="M162.779 176.486C160.568 176.578 159.297 175.564 152.327 117.989C150.935 106.495 159.137 101.757 164.072 99.408C169.007 97.0593 176.878 100.985 177.681 128.001C175.835 153.069 169.717 161.128 162.779 176.486Z" fill="white"></path><path d="M172.843 102.417C175.521 106.471 177.642 113.966 178.138 126.734L178.181 127.987L178.181 128.012L178.18 128.038C176.326 153.214 170.158 161.366 163.235 176.691L163.108 176.972L162.799 176.985C162.51 176.997 162.137 176.999 161.755 176.806C161.372 176.613 161.052 176.262 160.755 175.722C160.174 174.663 159.579 172.672 158.847 168.959C157.378 161.499 155.315 146.832 151.83 118.05C151.117 112.158 152.866 107.961 155.447 104.944C158.012 101.946 161.376 100.138 163.857 98.9566C165.188 98.323 166.737 98.105 168.319 98.6087C169.899 99.1116 171.455 100.315 172.843 102.417Z" stroke="#96D7FF" stroke-opacity="0.18" style="mix-blend-mode:color-burn"></path></g></g><g filter="url(#filter5_f_157_201)"><circle cx="139.725" cy="171.032" r="121" transform="rotate(21.5481 139.725 171.032)" fill="url(#paint1_linear_157_201)"></circle></g><defs><filter id="filter0_f_157_201" x="-31.377" y="7.35376" width="304.129" height="304.129" filterUnits="userSpaceOnUse" color-interpolation-filters="sRGB"><feFlood flood-opacity="0" result="BackgroundImageFix"></feFlood><feBlend mode="normal" in="SourceGraphic" in2="BackgroundImageFix" result="shape"></feBlend><feGaussianBlur stdDeviation="5" result="effect1_foregroundBlur_157_201"></feGaussianBlur></filter><filter id="filter1_di_157_201" x="-9.3418" y="37.3889" width="251.059" height="249.059" filterUnits="userSpaceOnUse" color-interpolation-filters="sRGB"><feFlood flood-opacity="0" result="BackgroundImageFix"></feFlood><feColorMatrix in="SourceAlpha" type="matrix" values="0 0 0 0 0 0 0 0 0 0 0 0 0 0 0 0 0 0 127 0" result="hardAlpha"></feColorMatrix><feMorphology radius="5" operator="erode" in="SourceAlpha" result="effect1_dropShadow_157_201"></feMorphology><feOffset dx="-8" dy="5"></feOffset><feGaussianBlur stdDeviation="8.5"></feGaussianBlur><feComposite in2="hardAlpha" operator="out"></feComposite><feColorMatrix type="matrix" values="0 0 0 0 0.588235 0 0 0 0 0.843137 0 0 0 0 1 0 0 0 0.68 0"></feColorMatrix><feBlend mode="normal" in2="BackgroundImageFix" result="effect1_dropShadow_157_201"></feBlend><feBlend mode="normal" in="SourceGraphic" in2="effect1_dropShadow_157_201" result="shape"></feBlend><feColorMatrix in="SourceAlpha" type="matrix" values="0 0 0 0 0 0 0 0 0 0 0 0 0 0 0 0 0 0 127 0" result="hardAlpha"></feColorMatrix><feOffset dx="11" dy="-14"></feOffset><feGaussianBlur stdDeviation="6"></feGaussianBlur><feComposite in2="hardAlpha" operator="arithmetic" k2="-1" k3="1"></feComposite><feColorMatrix type="matrix" values="0 0 0 0 0.588235 0 0 0 0 0.843137 0 0 0 0 1 0 0 0 1 0"></feColorMatrix><feBlend mode="normal" in2="shape" result="effect2_innerShadow_157_201"></feBlend></filter><filter id="filter2_f_157_201" x="33.1323" y="60.4478" width="80.5503" height="62.5388" filterUnits="userSpaceOnUse" color-interpolation-filters="sRGB"><feFlood flood-opacity="0" result="BackgroundImageFix"></feFlood><feBlend mode="normal" in="SourceGraphic" in2="BackgroundImageFix" result="shape"></feBlend><feGaussianBlur stdDeviation="1" result="effect1_foregroundBlur_157_201"></feGaussianBlur></filter><filter id="filter3_f_157_201" x="67.3052" y="216.464" width="41.7651" height="18.1243" filterUnits="userSpaceOnUse" color-interpolation-filters="sRGB"><feFlood flood-opacity="0" result="BackgroundImageFix"></feFlood><feBlend mode="normal" in="SourceGraphic" in2="BackgroundImageFix" result="shape"></feBlend><feGaussianBlur stdDeviation="1" result="effect1_foregroundBlur_157_201"></feGaussianBlur></filter><filter id="filter4_f_157_201" x="149.17" y="95.8306" width="31.5122" height="83.6592" filterUnits="userSpaceOnUse" color-interpolation-filters="sRGB"><feFlood flood-opacity="0" result="BackgroundImageFix"></feFlood><feBlend mode="normal" in="SourceGraphic" in2="BackgroundImageFix" result="shape"></feBlend><feGaussianBlur stdDeviation="1" result="effect1_foregroundBlur_157_201"></feGaussianBlur></filter><filter id="filter5_f_157_201" x="-31.3071" y="0" width="342.064" height="342.065" filterUnits="userSpaceOnUse" color-interpolation-filters="sRGB"><feFlood flood-opacity="0" result="BackgroundImageFix"></feFlood><feBlend mode="normal" in="SourceGraphic" in2="BackgroundImageFix" result="shape"></feBlend><feGaussianBlur stdDeviation="25" result="effect1_foregroundBlur_157_201"></feGaussianBlur></filter><linearGradient id="paint0_linear_157_201" x1="21.5611" y1="232.034" x2="230.187" y2="-10.0186" gradientUnits="userSpaceOnUse"><stop stop-color="#96D7FF" stop-opacity="0.81"></stop><stop offset="0.33149" stop-color="#C4C7FF" stop-opacity="0.45"></stop><stop offset="0.661234" stop-color="#AECFFF" stop-opacity="0.26"></stop><stop offset="0.915564" stop-color="#AECFFF" stop-opacity="0.04"></stop></linearGradient><linearGradient id="paint1_linear_157_201" x1="139.725" y1="50.0322" x2="139.725" y2="292.032" gradientUnits="userSpaceOnUse"><stop stop-color="white" stop-opacity="0"></stop><stop offset="1" stop-color="white"></stop></linearGradient></defs></svg> 