<?xml version="1.0" encoding="UTF-8"?> <svg xmlns="http://www.w3.org/2000/svg" width="36" height="34" viewBox="0 0 36 34" fill="none"><path d="M9.37972 12.9109C9.39621 12.7668 9.40445 12.6947 9.41261 12.6321C9.92597 8.695 13.2493 5.73012 17.2193 5.6675C17.2824 5.6665 17.3549 5.6665 17.5 5.6665C17.6451 5.6665 17.7176 5.6665 17.7807 5.6675C21.7507 5.73012 25.074 8.695 25.5874 12.6321C25.5955 12.6947 25.6038 12.7668 25.6203 12.9109L25.958 15.864C26.0465 16.6376 26.0908 17.0244 26.1712 17.4013C26.3087 18.046 26.5253 18.6713 26.8163 19.2628C26.9863 19.6086 27.1909 19.9399 27.6001 20.6023L28.7406 22.4489C29.5745 23.799 29.9914 24.474 29.7053 24.9869C29.4193 25.4998 28.6258 25.4998 27.039 25.4998H7.96103C6.37416 25.4998 5.58072 25.4998 5.29466 24.9869C5.0086 24.474 5.42554 23.799 6.25943 22.4489L7.39993 20.6023C7.80911 19.9399 8.0137 19.6086 8.18374 19.2628C8.47466 18.6713 8.69134 18.046 8.82885 17.4013C8.90923 17.0244 8.95347 16.6376 9.04195 15.864L9.37972 12.9109Z" stroke="#222222" stroke-width="2"></path><path d="M13.2741 26.075C13.5233 27.1293 14.0726 28.0609 14.8367 28.7254C15.6007 29.3898 16.5369 29.75 17.5 29.75C18.4631 29.75 19.3993 29.3898 20.1633 28.7254C20.9274 28.0609 21.4767 27.1293 21.7259 26.075" stroke="#222222" stroke-width="2" stroke-linecap="round"></path><circle cx="27.5" cy="9.5" r="8" fill="#F20000" stroke="white"></circle><path d="M27.145 5.3H28.465V13H26.947V6.906L25.495 7.313L25.121 6.015L27.145 5.3Z" fill="white"></path></svg> 