<?xml version="1.0" encoding="UTF-8"?> <svg xmlns="http://www.w3.org/2000/svg" width="61" height="61" viewBox="0 0 61 61" fill="none"><circle cx="30.5" cy="30.5" r="30.5" fill="url(#paint0_linear_445_226)"></circle><path d="M44.3389 20.0742C44.5177 20.2602 44.6596 20.4811 44.7564 20.7243C44.8531 20.9675 44.903 21.2282 44.903 21.4915C44.903 21.7549 44.8531 22.0156 44.7564 22.2588C44.6596 22.502 44.5177 22.7229 44.3389 22.9089L27.0591 40.9257C26.8807 41.1122 26.6689 41.2601 26.4356 41.361C26.2023 41.4619 25.9523 41.5139 25.6997 41.5139C25.4472 41.5139 25.1971 41.4619 24.9639 41.361C24.7306 41.2601 24.5187 41.1122 24.3404 40.9257L16.6605 32.9182C16.3 32.5423 16.0974 32.0325 16.0974 31.5009C16.0974 30.9693 16.3 30.4595 16.6605 30.0836C17.021 29.7077 17.51 29.4965 18.0198 29.4965C18.5297 29.4965 19.0186 29.7077 19.3792 30.0836L25.6997 36.6778L41.6202 20.0742C41.7986 19.8878 42.0104 19.7399 42.2437 19.639C42.4769 19.538 42.727 19.4861 42.9796 19.4861C43.2321 19.4861 43.4822 19.538 43.7154 19.639C43.9487 19.7399 44.1606 19.8878 44.3389 20.0742Z" fill="white"></path><defs><linearGradient id="paint0_linear_445_226" x1="30.5" y1="0" x2="30.5" y2="61" gradientUnits="userSpaceOnUse"><stop stop-color="#63CCFF"></stop><stop offset="1" stop-color="#45BDEE"></stop></linearGradient></defs></svg> 