<?xml version="1.0" encoding="UTF-8"?> <svg xmlns="http://www.w3.org/2000/svg" width="57" height="53" viewBox="0 0 57 53" fill="none"><path d="M41.6538 0.00663133C38.6667 -0.0885713 35.7364 0.843685 33.3455 2.64989C30.9546 4.4561 29.2457 7.02857 28.5 9.94372C27.7543 7.02857 26.0454 4.4561 23.6545 2.64989C21.2636 0.843685 18.3333 -0.0885713 15.3462 0.00663133C7.752 -0.236275 5.415 7.93422 7.97123 13.2472H2.19231C1.61087 13.2472 1.05325 13.4799 0.642112 13.894C0.230975 14.3081 0 14.8698 0 15.4555V19.872C0 20.4576 0.230975 21.0193 0.642112 21.4334C1.05325 21.8476 1.61087 22.0802 2.19231 22.0802H54.8077C55.3891 22.0802 55.9468 21.8476 56.3579 21.4334C56.769 21.0193 57 20.4576 57 19.872V15.4555C57 14.8698 56.769 14.3081 56.3579 13.894C55.9468 13.4799 55.3891 13.2472 54.8077 13.2472H49.0814C51.7385 8.01371 49.5111 0.00221517 41.8292 0.00221517L41.6538 0.00663133ZM42.4562 13.2472H32.8846C32.8869 10.9061 33.8119 8.6617 35.4562 7.0071C37.1005 5.35251 39.3296 4.42311 41.6538 4.42311C46.8058 4.42311 47.7178 12.6908 42.4562 13.2472ZM24.1154 13.2472H14.4342C9.89608 12.7305 9.62861 4.88243 14.6095 4.42311C14.8546 4.40051 15.1011 4.40051 15.3462 4.42311C17.6704 4.42311 19.8995 5.35251 21.5438 7.0071C23.1881 8.6617 24.1131 10.9061 24.1154 13.2472ZM4.38462 26.5011V46.3753C4.38462 48.1323 5.07754 49.8173 6.31095 51.0597C7.54436 52.302 9.21723 53 10.9615 53H24.1154V26.5011H4.38462ZM32.8846 26.5011V53H46.0385C47.7828 53 49.4556 52.302 50.689 51.0597C51.9225 49.8173 52.6154 48.1323 52.6154 46.3753V26.5011H32.8846Z" fill="#70CFF4"></path></svg> 