<?xml version="1.0" encoding="UTF-8"?> <svg xmlns="http://www.w3.org/2000/svg" width="50" height="50" viewBox="0 0 50 50" fill="none"><circle cx="25" cy="25" r="25" transform="rotate(-180 25 25)" fill="url(#paint0_linear_243_1531)"></circle><path d="M34.7071 25.7071C35.0976 25.3166 35.0976 24.6834 34.7071 24.2929L28.3431 17.9289C27.9526 17.5384 27.3195 17.5384 26.9289 17.9289C26.5384 18.3195 26.5384 18.9526 26.9289 19.3432L32.5858 25L26.9289 30.6569C26.5384 31.0474 26.5384 31.6805 26.9289 32.0711C27.3195 32.4616 27.9526 32.4616 28.3431 32.0711L34.7071 25.7071ZM16 26L34 26L34 24L16 24L16 26Z" fill="white"></path><defs><linearGradient id="paint0_linear_243_1531" x1="25" y1="1.90735e-06" x2="25" y2="50" gradientUnits="userSpaceOnUse"><stop stop-color="#63CCFF"></stop><stop offset="1" stop-color="#45BDEE"></stop></linearGradient></defs></svg> 