<?xml version="1.0" encoding="UTF-8"?> <svg xmlns="http://www.w3.org/2000/svg" width="54" height="42" viewBox="0 0 54 42" fill="none"><g clip-path="url(#clip0_251_274)"><path d="M9.8169 41.7914V39.0116C9.8169 37.9458 9.16848 37.251 8.05705 37.251C7.50144 37.251 6.89943 37.4363 6.48261 38.0386C6.15861 37.5289 5.69561 37.251 5.00099 37.251C4.53777 37.251 4.07497 37.3899 3.70436 37.8996V37.3436H2.73193V41.7914H3.70436V39.3358C3.70436 38.5483 4.12117 38.1775 4.76959 38.1775C5.41759 38.1775 5.74201 38.5946 5.74201 39.3358V41.7914H6.71443V39.3358C6.71443 38.5483 7.17723 38.1775 7.77925 38.1775C8.42767 38.1775 8.75167 38.5946 8.75167 39.3358V41.7914H9.8169ZM24.2178 37.3436H22.6436V36.0001H21.6712V37.3436H20.7913V38.2237H21.671V40.2625C21.671 41.2819 22.0878 41.8841 23.1992 41.8841C23.616 41.8841 24.0788 41.7452 24.4032 41.5599L24.1252 40.7258C23.8474 40.9111 23.5234 40.9575 23.2918 40.9575C22.8288 40.9575 22.6436 40.6796 22.6436 40.2161V38.2237H24.2178V37.3436ZM32.4604 37.2508C31.9048 37.2508 31.5344 37.5289 31.3028 37.8996V37.3436H30.3304V41.7914H31.3028V39.2896C31.3028 38.5483 31.6268 38.1313 32.2288 38.1313C32.414 38.1313 32.6456 38.1777 32.8308 38.2239L33.1086 37.2974C32.9234 37.251 32.6456 37.251 32.4604 37.251V37.2508ZM20.0041 37.7142C19.5409 37.3899 18.8927 37.251 18.1981 37.251C17.0869 37.251 16.3461 37.8069 16.3461 38.6872C16.3461 39.4286 16.9017 39.8455 17.8741 39.9846L18.3371 40.031C18.8465 40.1234 19.1243 40.2625 19.1243 40.4943C19.1243 40.8184 18.7539 41.0502 18.1055 41.0502C17.4573 41.0502 16.9479 40.8184 16.6236 40.5869L16.1606 41.3281C16.67 41.6988 17.3647 41.8841 18.0591 41.8841C19.3557 41.8841 20.0967 41.2819 20.0967 40.4478C20.0967 39.6602 19.4947 39.2431 18.5685 39.1043L18.1055 39.0578C17.6887 39.0114 17.3647 38.9189 17.3647 38.641C17.3647 38.3166 17.6887 38.1313 18.1981 38.1313C18.7539 38.1313 19.3095 38.3628 19.5873 38.5019L20.0041 37.7142ZM45.8429 37.251C45.2871 37.251 44.9167 37.5289 44.6851 37.8996V37.3436H43.7127V41.7914H44.6851V39.2896C44.6851 38.5483 45.0093 38.1313 45.6111 38.1313C45.7965 38.1313 46.0281 38.1777 46.2133 38.2239L46.4911 37.2974C46.3059 37.251 46.0281 37.251 45.8429 37.251ZM33.4328 39.5675C33.4328 40.9111 34.3588 41.8841 35.7945 41.8841C36.4427 41.8841 36.9057 41.7452 37.3687 41.3746L36.9057 40.5869C36.5353 40.8649 36.1649 41.0038 35.7481 41.0038C34.9609 41.0038 34.4053 40.4478 34.4053 39.5675C34.4053 38.7336 34.9609 38.1775 35.7481 38.1313C36.1649 38.1313 36.5353 38.2702 36.9057 38.5483L37.3687 37.7607C36.9057 37.3899 36.4427 37.251 35.7945 37.251C34.3588 37.251 33.4328 38.2239 33.4328 39.5675ZM42.4162 39.5675V37.3436H41.4438V37.8996C41.1196 37.4827 40.6566 37.251 40.0546 37.251C38.8044 37.251 37.8319 38.2239 37.8319 39.5675C37.8319 40.9111 38.8044 41.8841 40.0546 41.8841C40.7028 41.8841 41.166 41.6525 41.4438 41.2355V41.7914H42.4162V39.5675ZM38.8505 39.5675C38.8505 38.7799 39.36 38.1313 40.1934 38.1313C40.9806 38.1313 41.5364 38.7336 41.5364 39.5675C41.5364 40.3552 40.9806 41.0038 40.1934 41.0038C39.36 40.9573 38.8505 40.3552 38.8505 39.5675ZM27.2279 37.251C25.9313 37.251 25.005 38.1775 25.005 39.5675C25.005 40.9575 25.9311 41.8841 27.2741 41.8841C27.9223 41.8841 28.5707 41.6988 29.0801 41.2819L28.6169 40.5869C28.2465 40.8649 27.7835 41.0502 27.3205 41.0502C26.7185 41.0502 26.1165 40.7722 25.9775 39.9844H29.2653V39.614C29.3117 38.1775 28.4783 37.251 27.2279 37.251ZM27.2279 38.0849C27.8297 38.0849 28.2467 38.4557 28.3391 39.1507H26.0239C26.1165 38.5483 26.5333 38.0849 27.2279 38.0849ZM51.3532 39.5675V35.583H50.3808V37.8996C50.0566 37.4827 49.5936 37.251 48.9916 37.251C47.7414 37.251 46.7689 38.2239 46.7689 39.5675C46.7689 40.9111 47.7414 41.8841 48.9916 41.8841C49.64 41.8841 50.103 41.6525 50.3808 41.2355V41.7914H51.3532V39.5675ZM47.7878 39.5675C47.7878 38.7799 48.297 38.1313 49.1306 38.1313C49.9178 38.1313 50.4734 38.7336 50.4734 39.5675C50.4734 40.3552 49.9178 41.0038 49.1306 41.0038C48.297 40.9573 47.7878 40.3552 47.7878 39.5675ZM15.2808 39.5675V37.3436H14.3084V37.8996C13.9842 37.4827 13.5212 37.251 12.9192 37.251C11.6689 37.251 10.6965 38.2239 10.6965 39.5675C10.6965 40.9111 11.6689 41.8841 12.9192 41.8841C13.5676 41.8841 14.0306 41.6525 14.3084 41.2355V41.7914H15.2808V39.5675ZM11.6689 39.5675C11.6689 38.7799 12.1783 38.1313 13.0118 38.1313C13.799 38.1313 14.3548 38.7336 14.3548 39.5675C14.3548 40.3552 13.799 41.0038 13.0118 41.0038C12.1783 40.9573 11.6689 40.3552 11.6689 39.5675Z" fill="black"></path><path d="M19.6802 3.56738H34.2665V29.7912H19.6802V3.56738Z" fill="#FF5F00"></path><path d="M53.9466 16.6795C53.9466 25.8994 46.4914 33.359 37.2764 33.359C33.3867 33.359 29.8212 32.0154 26.9966 29.7913C30.8863 26.7335 33.3405 22.0076 33.3405 16.6795C33.3405 11.3514 30.8399 6.62545 26.9966 3.56747C29.821 1.34358 33.3867 0 37.2764 0C46.4914 0 53.9466 7.50576 53.9466 16.6795Z" fill="#F79E1B"></path><path d="M20.6063 16.6795C20.6063 11.3514 23.1067 6.62545 26.95 3.56747C24.1256 1.34358 20.5601 0 16.6704 0C7.45516 0 0 7.45933 0 16.6795C0 25.8994 7.45516 33.359 16.6702 33.359C20.5599 33.359 24.1253 32.0154 26.95 29.7913C23.1067 26.7798 20.6063 22.0076 20.6063 16.6795Z" fill="#EB001B"></path></g><defs><clipPath id="clip0_251_274"><rect width="54" height="42" fill="white"></rect></clipPath></defs></svg> 