<?xml version="1.0" encoding="UTF-8"?> <svg xmlns="http://www.w3.org/2000/svg" width="24" height="24" viewBox="0 0 24 24" fill="none"><path d="M2.50726 1.98965L3.45386 1.04304C3.84439 0.65252 4.47755 0.652521 4.86808 1.04305L8.7872 4.96216C9.17772 5.35269 9.17772 5.98585 8.7872 6.37638L7.18996 7.97361C6.97359 8.18999 6.91994 8.52055 7.05679 8.79425C8.63901 11.9587 11.2049 14.5246 14.3693 16.1068C14.643 16.2436 14.9736 16.19 15.19 15.9736L16.7872 14.3764C17.1777 13.9859 17.8109 13.9859 18.2014 14.3764L22.1205 18.2955C22.5111 18.686 22.5111 19.3192 22.1205 19.7097L21.1739 20.6563C19.0626 22.7677 15.72 23.0052 13.3313 21.2137L9.45621 18.3074C7.71268 16.9997 6.16386 15.4509 4.85621 13.7074L1.9499 9.83229C0.158359 7.44357 0.39591 4.101 2.50726 1.98965Z" stroke="#222222" stroke-width="1.5"></path></svg> 