<svg width="25" height="25" viewBox="0 0 25 25" fill="none" xmlns="http://www.w3.org/2000/svg">
<path d="M1.21949 9.61257C4.03134 15.7396 9.02762 20.5957 15.23 23.23L16.226 23.6741C17.3289 24.1655 18.5697 24.2516 19.7299 23.9173C20.89 23.583 21.895 22.8497 22.5678 21.8466L23.8698 19.9063C24.0735 19.602 24.156 19.2324 24.101 18.8702C24.046 18.5081 23.8574 18.1798 23.5725 17.9498L19.1611 14.3886C19.0074 14.2647 18.8303 14.1731 18.6404 14.1194C18.4505 14.0656 18.2518 14.0508 18.056 14.0759C17.8603 14.1009 17.6716 14.1653 17.5013 14.2651C17.331 14.365 17.1827 14.4982 17.0652 14.6568L15.7002 16.499C12.1962 14.7674 9.36001 11.929 7.63012 8.42258L9.46968 7.05673C9.62822 6.93914 9.76137 6.79071 9.86114 6.62034C9.96092 6.44997 10.0253 6.26118 10.0503 6.06531C10.0753 5.86944 10.0605 5.67053 10.0068 5.48052C9.9531 5.29051 9.86156 5.11332 9.7377 4.9596L6.17868 0.5455C5.94888 0.260391 5.62071 0.0717223 5.25881 0.0166589C4.89691 -0.0384044 4.52753 0.0441295 4.22342 0.248002L2.27108 1.55816C1.26255 2.2349 0.526856 3.24791 0.195064 4.41672C-0.136727 5.58554 -0.0430696 6.83426 0.459352 7.94043L1.21949 9.61257Z" fill="white"/>
</svg>
