<?xml version="1.0" encoding="UTF-8"?> <svg xmlns="http://www.w3.org/2000/svg" width="209px" height="209px" viewBox="-0.24 -0.24 24.48 24.48" fill="none"><g id="SVGRepo_bgCarrier" stroke-width="0"></g><g id="SVGRepo_tracerCarrier" stroke-linecap="round" stroke-linejoin="round" stroke="#CCCCCC" stroke-width="0.768"></g><g id="SVGRepo_iconCarrier"><path d="M2 12C2 8.22876 2 6.34315 3.17157 5.17157C4.34315 4 6.22876 4 10 4H14C17.7712 4 19.6569 4 20.8284 5.17157C22 6.34315 22 8.22876 22 12V14C22 17.7712 22 19.6569 20.8284 20.8284C19.6569 22 17.7712 22 14 22H10C6.22876 22 4.34315 22 3.17157 20.8284C2 19.6569 2 17.7712 2 14V12Z" stroke="#7E8283" stroke-width="1.9440000000000002"></path><path d="M7 4V2.5" stroke="#7E8283" stroke-width="1.9440000000000002" stroke-linecap="round"></path><path d="M17 4V2.5" stroke="#7E8283" stroke-width="1.9440000000000002" stroke-linecap="round"></path><path d="M2.5 9H21.5" stroke="#7E8283" stroke-width="1.9440000000000002" stroke-linecap="round"></path></g></svg> 