<?xml version="1.0" encoding="UTF-8"?> <svg xmlns="http://www.w3.org/2000/svg" width="21" height="21" viewBox="0 0 21 21" fill="none"><circle cx="10.5" cy="10.5" r="10.5" fill="#70CFF4"></circle><path d="M9.665 12.335C9.665 11.9537 9.74733 11.5983 9.912 11.269C10.0767 10.9397 10.276 10.658 10.51 10.424C10.744 10.19 10.978 9.969 11.212 9.761C11.446 9.54433 11.6453 9.31033 11.81 9.059C11.9747 8.799 12.057 8.526 12.057 8.24C12.057 7.80667 11.9053 7.47733 11.602 7.252C11.3073 7.018 10.9217 6.901 10.445 6.901C9.49167 6.901 8.88067 7.32133 8.612 8.162L7.585 7.59C7.80167 6.98333 8.17 6.524 8.69 6.212C9.21 5.89133 9.79933 5.731 10.458 5.731C11.2293 5.731 11.888 5.94767 12.434 6.381C12.9887 6.81433 13.266 7.41667 13.266 8.188C13.266 8.552 13.1837 8.89433 13.019 9.215C12.8543 9.53567 12.655 9.813 12.421 10.047C12.187 10.281 11.953 10.5107 11.719 10.736C11.485 10.9527 11.2857 11.1997 11.121 11.477C10.9563 11.7457 10.874 12.0317 10.874 12.335H9.665ZM10.263 15.143C10.029 15.143 9.82967 15.0607 9.665 14.896C9.50033 14.7313 9.418 14.532 9.418 14.298C9.418 14.064 9.50033 13.8647 9.665 13.7C9.82967 13.5353 10.029 13.453 10.263 13.453C10.5057 13.453 10.705 13.5353 10.861 13.7C11.0257 13.8647 11.108 14.064 11.108 14.298C11.108 14.532 11.0257 14.7313 10.861 14.896C10.705 15.0607 10.5057 15.143 10.263 15.143Z" fill="white"></path></svg> 