<?xml version="1.0" encoding="UTF-8"?> <svg xmlns="http://www.w3.org/2000/svg" width="258" height="290" viewBox="0 0 258 290" fill="none"><g filter="url(#filter0_f_226_132)"><g filter="url(#filter1_di_226_132)"><circle cx="122" cy="138.159" r="60" transform="rotate(-135 122 138.159)" fill="#96D7FF" fill-opacity="0.13" shape-rendering="crispEdges"></circle><circle cx="122" cy="138.159" r="60" transform="rotate(-135 122 138.159)" stroke="url(#paint0_linear_226_132)" stroke-linejoin="round" shape-rendering="crispEdges"></circle></g><g filter="url(#filter2_f_226_132)"><path d="M71.5348 122.528C72.8746 122.082 67.0688 119.849 81.5023 153.932C84.384 160.737 86.953 167.721 84.3405 170.033C81.7281 172.344 76.2076 171.325 70.9487 154.896C67.6579 139.195 69.9889 133.172 71.5348 122.528Z" fill="white"></path><path d="M78.3128 169.872C75.9943 167.892 73.4494 163.836 70.9676 156.549L70.472 155.048L70.4645 155.024L70.4592 154.998C67.1461 139.191 69.4995 133.065 71.0403 122.457L71.0845 122.151L71.2674 122.091C71.3157 122.026 71.3779 121.959 71.4612 121.909C71.5269 121.871 71.6951 121.79 71.9015 121.859C72.1562 121.944 72.245 122.171 72.2545 122.32C72.2629 122.455 72.2196 122.562 72.1861 122.624C72.1486 122.694 72.1004 122.751 72.0517 122.797C72.0454 122.802 72.0384 122.808 72.0319 122.814C72.0084 122.913 71.9819 123.07 71.9708 123.305C71.9516 123.711 71.9761 124.32 72.1032 125.211C72.6138 128.79 74.7485 136.702 81.9625 153.737C83.4027 157.138 84.7813 160.621 85.4681 163.553C85.8113 165.019 85.9901 166.378 85.9031 167.537C85.8161 168.696 85.4578 169.712 84.6718 170.407C83.9379 171.056 82.9833 171.484 81.8717 171.453C80.7629 171.421 79.5579 170.936 78.3128 169.872Z" stroke="#96D7FF" stroke-opacity="0.18" style="mix-blend-mode:color-burn"></path></g><g filter="url(#filter3_f_226_132)"><path d="M141.318 176.584C140.833 176.28 141.631 178.671 148.568 165.373C149.953 162.718 151.474 160.115 152.87 160.336C154.266 160.557 155.37 162.546 151.589 168.425C147.528 173.5 145.044 174.324 141.318 176.584Z" fill="white"></path><path d="M154.671 162.268C154.648 163.583 154.003 165.48 152.353 168.15L152.009 168.695L151.996 168.717L151.98 168.737C147.851 173.898 145.273 174.77 141.578 177.011L141.314 177.171L141.159 177.073C141.122 177.068 141.082 177.061 141.042 177.046C140.978 177.023 140.813 176.948 140.736 176.749C140.641 176.502 140.76 176.294 140.864 176.195C140.959 176.107 141.063 176.075 141.123 176.063C141.149 176.058 141.175 176.056 141.199 176.055C141.218 176.043 141.242 176.029 141.27 176.009C141.382 175.924 141.553 175.774 141.79 175.514C142.75 174.462 144.659 171.785 148.124 165.142C148.816 163.816 149.56 162.466 150.317 161.473C150.695 160.977 151.096 160.545 151.516 160.248C151.936 159.951 152.424 159.759 152.948 159.842C153.404 159.915 153.856 160.136 154.185 160.559C154.513 160.981 154.684 161.555 154.671 162.268Z" stroke="#96D7FF" stroke-opacity="0.18" style="mix-blend-mode:color-burn"></path></g><g filter="url(#filter4_f_226_132)"><path d="M139.759 120.723C139.323 121.854 138.536 122.272 108.074 113.22C101.993 111.413 101.4 106.257 101.295 103.264C101.191 100.271 104.88 97.1703 118.636 102.658C130.835 109.053 133.552 113.886 139.759 120.723Z" fill="white"></path><path d="M104.681 99.2886C107.278 98.8309 111.369 99.3648 117.556 101.702L118.821 102.194L118.845 102.203L118.868 102.216C131.163 108.661 133.945 113.576 140.128 120.387L140.336 120.615L140.225 120.902C140.166 121.056 140.069 121.291 139.841 121.48C139.612 121.67 139.316 121.765 138.954 121.799C138.256 121.864 137.093 121.72 135.069 121.279C130.989 120.388 123.158 118.224 107.932 113.7C104.752 112.755 102.974 110.916 101.993 108.906C101.024 106.918 100.848 104.793 100.795 103.281C100.766 102.425 101.008 101.541 101.649 100.806C102.288 100.074 103.285 99.5347 104.681 99.2886Z" stroke="#96D7FF" stroke-opacity="0.18" style="mix-blend-mode:color-burn"></path></g></g><g filter="url(#filter5_f_226_132)"><circle cx="112.287" cy="144.761" r="75.5" transform="rotate(-97.9802 112.287 144.761)" fill="url(#paint1_linear_226_132)"></circle></g><defs><filter id="filter0_f_226_132" x="27.147" y="43.3063" width="189.706" height="189.706" filterUnits="userSpaceOnUse" color-interpolation-filters="sRGB"><feFlood flood-opacity="0" result="BackgroundImageFix"></feFlood><feBlend mode="normal" in="SourceGraphic" in2="BackgroundImageFix" result="shape"></feBlend><feGaussianBlur stdDeviation="5" result="effect1_foregroundBlur_226_132"></feGaussianBlur></filter><filter id="filter1_di_226_132" x="41.5" y="65.6592" width="152" height="150" filterUnits="userSpaceOnUse" color-interpolation-filters="sRGB"><feFlood flood-opacity="0" result="BackgroundImageFix"></feFlood><feColorMatrix in="SourceAlpha" type="matrix" values="0 0 0 0 0 0 0 0 0 0 0 0 0 0 0 0 0 0 127 0" result="hardAlpha"></feColorMatrix><feMorphology radius="5" operator="erode" in="SourceAlpha" result="effect1_dropShadow_226_132"></feMorphology><feOffset dx="-8" dy="5"></feOffset><feGaussianBlur stdDeviation="8.5"></feGaussianBlur><feComposite in2="hardAlpha" operator="out"></feComposite><feColorMatrix type="matrix" values="0 0 0 0 0.588235 0 0 0 0 0.843137 0 0 0 0 1 0 0 0 0.68 0"></feColorMatrix><feBlend mode="normal" in2="BackgroundImageFix" result="effect1_dropShadow_226_132"></feBlend><feBlend mode="normal" in="SourceGraphic" in2="effect1_dropShadow_226_132" result="shape"></feBlend><feColorMatrix in="SourceAlpha" type="matrix" values="0 0 0 0 0 0 0 0 0 0 0 0 0 0 0 0 0 0 127 0" result="hardAlpha"></feColorMatrix><feOffset dx="11" dy="-14"></feOffset><feGaussianBlur stdDeviation="6"></feGaussianBlur><feComposite in2="hardAlpha" operator="arithmetic" k2="-1" k3="1"></feComposite><feColorMatrix type="matrix" values="0 0 0 0 0.588235 0 0 0 0 0.843137 0 0 0 0 1 0 0 0 1 0"></feColorMatrix><feBlend mode="normal" in2="shape" result="effect2_innerShadow_226_132"></feBlend></filter><filter id="filter2_f_226_132" x="66.2812" y="119.332" width="22.1436" height="54.6224" filterUnits="userSpaceOnUse" color-interpolation-filters="sRGB"><feFlood flood-opacity="0" result="BackgroundImageFix"></feFlood><feBlend mode="normal" in="SourceGraphic" in2="BackgroundImageFix" result="shape"></feBlend><feGaussianBlur stdDeviation="1" result="effect1_foregroundBlur_226_132"></feGaussianBlur></filter><filter id="filter3_f_226_132" x="138.201" y="157.323" width="18.9707" height="22.4354" filterUnits="userSpaceOnUse" color-interpolation-filters="sRGB"><feFlood flood-opacity="0" result="BackgroundImageFix"></feFlood><feBlend mode="normal" in="SourceGraphic" in2="BackgroundImageFix" result="shape"></feBlend><feGaussianBlur stdDeviation="1" result="effect1_foregroundBlur_226_132"></feGaussianBlur></filter><filter id="filter4_f_226_132" x="98.293" y="96.6389" width="44.6201" height="27.6742" filterUnits="userSpaceOnUse" color-interpolation-filters="sRGB"><feFlood flood-opacity="0" result="BackgroundImageFix"></feFlood><feBlend mode="normal" in="SourceGraphic" in2="BackgroundImageFix" result="shape"></feBlend><feGaussianBlur stdDeviation="1" result="effect1_foregroundBlur_226_132"></feGaussianBlur></filter><filter id="filter5_f_226_132" x="16.7778" y="49.252" width="191.019" height="191.019" filterUnits="userSpaceOnUse" color-interpolation-filters="sRGB"><feFlood flood-opacity="0" result="BackgroundImageFix"></feFlood><feBlend mode="normal" in="SourceGraphic" in2="BackgroundImageFix" result="shape"></feBlend><feGaussianBlur stdDeviation="10" result="effect1_foregroundBlur_226_132"></feGaussianBlur></filter><linearGradient id="paint0_linear_226_132" x1="67.6842" y1="177.949" x2="182" y2="45.317" gradientUnits="userSpaceOnUse"><stop stop-color="#96D7FF" stop-opacity="0.81"></stop><stop offset="0.33149" stop-color="#C4C7FF" stop-opacity="0.45"></stop><stop offset="0.661234" stop-color="#AECFFF" stop-opacity="0.26"></stop><stop offset="0.915564" stop-color="#AECFFF" stop-opacity="0.04"></stop></linearGradient><linearGradient id="paint1_linear_226_132" x1="89.2253" y1="69.2614" x2="129.858" y2="210.927" gradientUnits="userSpaceOnUse"><stop stop-color="white"></stop><stop offset="1" stop-color="white" stop-opacity="0"></stop></linearGradient></defs></svg> 