<?xml version="1.0" encoding="UTF-8"?> <svg xmlns="http://www.w3.org/2000/svg" width="259" height="260" viewBox="0 0 259 260" fill="none"><g filter="url(#filter0_f_226_135)"><g filter="url(#filter1_di_226_135)"><circle cx="130.431" cy="120.02" r="80" transform="rotate(-165 130.431 120.02)" fill="#96D7FF" fill-opacity="0.13" shape-rendering="crispEdges"></circle><circle cx="130.431" cy="120.02" r="80" transform="rotate(-165 130.431 120.02)" stroke="url(#paint0_linear_226_135)" stroke-linejoin="round" shape-rendering="crispEdges"></circle></g><g filter="url(#filter2_f_226_135)"><path d="M61.7387 135.615C62.988 134.206 54.7955 135.498 94.1843 165.232C102.048 171.169 109.671 177.52 108.195 181.931C106.719 186.341 99.6655 188.845 82.6401 173.38C68.3731 157.444 67.0495 148.936 61.7387 135.615Z" fill="white"></path><path d="M101.157 185.6C96.9404 184.818 90.8348 181.499 82.3043 173.751L82.2845 173.733L82.2673 173.714C67.9277 157.697 66.5717 149.088 61.274 135.8L61.1598 135.514L61.298 135.359C61.3041 135.254 61.3263 135.137 61.3861 135.031C61.4258 134.961 61.5341 134.805 61.7496 134.761C62.015 134.706 62.2086 134.86 62.2928 134.987C62.3692 135.102 62.3857 135.22 62.3879 135.296C62.3904 135.381 62.3768 135.461 62.3552 135.533C62.3479 135.557 62.3385 135.581 62.3289 135.605C62.367 135.75 62.4457 135.975 62.6122 136.297C62.8669 136.791 63.3077 137.487 64.0529 138.436C67.0419 142.246 74.7966 149.97 94.4861 164.833C98.4169 167.8 102.32 170.896 105.056 173.812C106.424 175.27 107.524 176.705 108.185 178.079C108.847 179.454 109.094 180.818 108.669 182.089C108.266 183.294 107.474 184.388 106.212 185.07C104.952 185.751 103.277 185.993 101.157 185.6Z" stroke="#96D7FF" stroke-opacity="0.18" style="mix-blend-mode:color-burn"></path></g><g filter="url(#filter3_f_226_135)"><path d="M178.354 151.511C177.592 151.483 180.107 153.711 179.252 133.733C179.081 129.744 179.103 125.724 180.862 125.048C182.621 124.373 185.222 125.933 184.775 135.242C183.469 143.81 181.15 146.417 178.354 151.511Z" fill="white"></path><path d="M184.083 126.159C184.911 127.654 185.431 130.238 185.307 134.41L185.274 135.266L185.272 135.292L185.269 135.317C183.947 143.993 181.571 146.689 178.792 151.751L178.644 152.021L178.461 152.014C178.418 152.035 178.37 152.054 178.315 152.064C178.246 152.076 178.065 152.093 177.898 151.958C177.692 151.792 177.688 151.551 177.73 151.413C177.769 151.288 177.844 151.207 177.892 151.166C177.926 151.136 177.961 151.113 177.995 151.095C178.015 151.06 178.04 151.011 178.069 150.944C178.148 150.759 178.248 150.461 178.35 149.996C178.762 148.12 179.179 143.737 178.752 133.754C178.667 131.761 178.627 129.719 178.837 128.084C178.942 127.267 179.113 126.52 179.39 125.92C179.668 125.319 180.077 124.814 180.682 124.582C181.223 124.374 181.848 124.333 182.467 124.584C183.082 124.834 183.635 125.352 184.083 126.159Z" stroke="#96D7FF" stroke-opacity="0.18" style="mix-blend-mode:color-burn"></path></g><g filter="url(#filter4_f_226_135)"><path d="M139.312 88.0474C139.564 89.6444 138.933 90.6513 97.7252 100.507C89.4979 102.475 85.3756 96.9164 83.2596 93.5302C81.1437 90.144 83.337 84.1038 102.88 81.2704C121.228 80.5215 127.587 84.2911 139.312 88.0474Z" fill="white"></path><path d="M84.6268 86.8099C87.3748 84.5047 92.6686 82.3357 101.902 80.9112L102.808 80.7759L102.833 80.7718L102.859 80.7706C121.316 80.0173 127.774 83.8257 139.464 87.5711L139.758 87.6651L139.807 87.9698C139.84 88.1822 139.878 88.4831 139.757 88.8107C139.635 89.1393 139.384 89.4207 139.004 89.6895C138.265 90.2133 136.851 90.8169 134.218 91.6567C128.92 93.3467 118.441 96.0666 97.8415 100.994C93.587 102.011 90.3569 101.083 87.9217 99.4412C85.5075 97.813 83.9018 95.5014 82.8356 93.7951C82.2494 92.8571 81.9524 91.7169 82.1937 90.4883C82.4344 89.2623 83.1998 88.007 84.6268 86.8099Z" stroke="#96D7FF" stroke-opacity="0.18" style="mix-blend-mode:color-burn"></path></g></g><g filter="url(#filter5_f_226_135)"><ellipse cx="129.5" cy="127.5" rx="112.5" ry="109.5" transform="rotate(-90 129.5 127.5)" fill="url(#paint1_linear_226_135)"></ellipse></g><g filter="url(#filter6_f_226_135)"><ellipse cx="129.5" cy="127.5" rx="112.5" ry="109.5" transform="rotate(-90 129.5 127.5)" fill="url(#paint2_linear_226_135)" fill-opacity="0.5"></ellipse></g><defs><filter id="filter0_f_226_135" x="22.4517" y="12.0408" width="215.959" height="215.959" filterUnits="userSpaceOnUse" color-interpolation-filters="sRGB"><feFlood flood-opacity="0" result="BackgroundImageFix"></feFlood><feBlend mode="normal" in="SourceGraphic" in2="BackgroundImageFix" result="shape"></feBlend><feGaussianBlur stdDeviation="5" result="effect1_foregroundBlur_226_135"></feGaussianBlur></filter><filter id="filter1_di_226_135" x="29.9116" y="27.5005" width="192.04" height="190.04" filterUnits="userSpaceOnUse" color-interpolation-filters="sRGB"><feFlood flood-opacity="0" result="BackgroundImageFix"></feFlood><feColorMatrix in="SourceAlpha" type="matrix" values="0 0 0 0 0 0 0 0 0 0 0 0 0 0 0 0 0 0 127 0" result="hardAlpha"></feColorMatrix><feMorphology radius="5" operator="erode" in="SourceAlpha" result="effect1_dropShadow_226_135"></feMorphology><feOffset dx="-8" dy="5"></feOffset><feGaussianBlur stdDeviation="8.5"></feGaussianBlur><feComposite in2="hardAlpha" operator="out"></feComposite><feColorMatrix type="matrix" values="0 0 0 0 0.588235 0 0 0 0 0.843137 0 0 0 0 1 0 0 0 0.68 0"></feColorMatrix><feBlend mode="normal" in2="BackgroundImageFix" result="effect1_dropShadow_226_135"></feBlend><feBlend mode="normal" in="SourceGraphic" in2="effect1_dropShadow_226_135" result="shape"></feBlend><feColorMatrix in="SourceAlpha" type="matrix" values="0 0 0 0 0 0 0 0 0 0 0 0 0 0 0 0 0 0 127 0" result="hardAlpha"></feColorMatrix><feOffset dx="11" dy="-14"></feOffset><feGaussianBlur stdDeviation="6"></feGaussianBlur><feComposite in2="hardAlpha" operator="arithmetic" k2="-1" k3="1"></feComposite><feColorMatrix type="matrix" values="0 0 0 0 0.588235 0 0 0 0 0.843137 0 0 0 0 1 0 0 0 1 0"></feColorMatrix><feBlend mode="normal" in2="shape" result="effect2_innerShadow_226_135"></feBlend></filter><filter id="filter2_f_226_135" x="58.5815" y="132.249" width="52.7983" height="56.0402" filterUnits="userSpaceOnUse" color-interpolation-filters="sRGB"><feFlood flood-opacity="0" result="BackgroundImageFix"></feFlood><feBlend mode="normal" in="SourceGraphic" in2="BackgroundImageFix" result="shape"></feBlend><feGaussianBlur stdDeviation="1" result="effect1_foregroundBlur_226_135"></feGaussianBlur></filter><filter id="filter3_f_226_135" x="175.21" y="121.91" width="12.6157" height="32.6615" filterUnits="userSpaceOnUse" color-interpolation-filters="sRGB"><feFlood flood-opacity="0" result="BackgroundImageFix"></feFlood><feBlend mode="normal" in="SourceGraphic" in2="BackgroundImageFix" result="shape"></feBlend><feGaussianBlur stdDeviation="1" result="effect1_foregroundBlur_226_135"></feGaussianBlur></filter><filter id="filter4_f_226_135" x="79.6094" y="78.1749" width="62.73" height="25.7434" filterUnits="userSpaceOnUse" color-interpolation-filters="sRGB"><feFlood flood-opacity="0" result="BackgroundImageFix"></feFlood><feBlend mode="normal" in="SourceGraphic" in2="BackgroundImageFix" result="shape"></feBlend><feGaussianBlur stdDeviation="1" result="effect1_foregroundBlur_226_135"></feGaussianBlur></filter><filter id="filter5_f_226_135" x="0" y="-5" width="259" height="265" filterUnits="userSpaceOnUse" color-interpolation-filters="sRGB"><feFlood flood-opacity="0" result="BackgroundImageFix"></feFlood><feBlend mode="normal" in="SourceGraphic" in2="BackgroundImageFix" result="shape"></feBlend><feGaussianBlur stdDeviation="10" result="effect1_foregroundBlur_226_135"></feGaussianBlur></filter><filter id="filter6_f_226_135" x="0" y="-5" width="259" height="265" filterUnits="userSpaceOnUse" color-interpolation-filters="sRGB"><feFlood flood-opacity="0" result="BackgroundImageFix"></feFlood><feBlend mode="normal" in="SourceGraphic" in2="BackgroundImageFix" result="shape"></feBlend><feGaussianBlur stdDeviation="10" result="effect1_foregroundBlur_226_135"></feGaussianBlur></filter><linearGradient id="paint0_linear_226_135" x1="58.0104" y1="173.073" x2="210.431" y2="-3.76906" gradientUnits="userSpaceOnUse"><stop stop-color="#96D7FF" stop-opacity="0.81"></stop><stop offset="0.33149" stop-color="#C4C7FF" stop-opacity="0.45"></stop><stop offset="0.661234" stop-color="#AECFFF" stop-opacity="0.26"></stop><stop offset="0.915564" stop-color="#AECFFF" stop-opacity="0.04"></stop></linearGradient><linearGradient id="paint1_linear_226_135" x1="95.1364" y1="18" x2="152.726" y2="224.287" gradientUnits="userSpaceOnUse"><stop stop-color="white"></stop><stop offset="1" stop-color="white" stop-opacity="0"></stop></linearGradient><linearGradient id="paint2_linear_226_135" x1="95.1364" y1="18" x2="152.726" y2="224.287" gradientUnits="userSpaceOnUse"><stop stop-color="white"></stop><stop offset="1" stop-color="white" stop-opacity="0"></stop></linearGradient></defs></svg> 