<?xml version="1.0" encoding="UTF-8"?> <svg xmlns="http://www.w3.org/2000/svg" width="42" height="43" viewBox="0 0 42 43" fill="none"><path d="M21 42.4348C32.598 42.4348 42 32.9355 42 21.2174C42 9.49936 32.598 0 21 0C9.40202 0 0 9.49936 0 21.2174C0 32.9355 9.40202 42.4348 21 42.4348Z" fill="#48B254"></path><path fill-rule="evenodd" clip-rule="evenodd" d="M29.7688 9.77014L31.0091 10.9079L15.3484 19.9412L7.76738 15.532L8.47613 14.1091L15.3484 18.0569L29.7688 9.77014ZM26.6162 7.95605L28.2804 8.81006L15.3484 16.2786L9.32663 12.8281L10.353 11.5842L15.3484 14.4645L26.6175 7.95605H26.6162ZM32.1077 12.0815L33.0278 13.3267L15.3484 23.5336L6.81057 18.6258L7.20038 17.061L15.3484 21.7553L32.1077 12.0815ZM34.6579 16.6698C35.1776 18.1404 35.4375 19.68 35.4375 21.2925C35.4375 22.905 35.1776 24.4712 34.6579 25.9869L34.3035 26.9483C33.5758 28.6728 32.53 30.2416 31.2218 31.571C29.898 32.8842 28.3331 33.9235 26.6149 34.6303C24.7971 35.4127 22.9202 35.8039 20.9829 35.8039C19.0221 35.8039 17.1439 35.4127 15.3484 34.6303C13.6507 33.9052 12.101 32.8679 10.7783 31.571C9.45503 30.2541 8.40705 28.6821 7.6965 26.9483C6.94838 25.1581 6.56119 23.2352 6.5625 21.2925V20.3324L15.3484 25.3477L33.8783 14.678L34.6579 16.6698Z" fill="white"></path></svg> 