<?xml version="1.0" encoding="UTF-8"?> <svg xmlns="http://www.w3.org/2000/svg" width="25" height="24" viewBox="0 0 25 24" fill="none"><path d="M21 0L20.7783 1.09667C20.6195 1.88417 20.26 2.61733 19.7347 3.22519C19.2095 3.83304 18.5362 4.29499 17.78 4.56633L17.5 4.66667L17.78 4.767C18.5362 5.03834 19.2095 5.5003 19.7347 6.10815C20.26 6.716 20.6195 7.44916 20.7783 8.23667L21 9.33333L21.2217 8.23667C21.3805 7.44916 21.74 6.716 22.2653 6.10815C22.7905 5.5003 23.4638 5.03834 24.22 4.767L24.5 4.66667L24.22 4.56633C23.4638 4.29499 22.7905 3.83304 22.2653 3.22519C21.74 2.61733 21.3805 1.88417 21.2217 1.09667L21 0ZM17.5 16.3333L17.2317 17.822C17.162 18.2103 16.995 18.5746 16.7463 18.8809C16.4976 19.1871 16.1753 19.4253 15.8095 19.5732L15.1667 19.8333L15.8095 20.0935C16.1753 20.2411 16.4978 20.479 16.7467 20.7851C16.9956 21.0911 17.1629 21.4553 17.2328 21.8435L17.5 23.3333L17.7683 21.8447C17.838 21.4564 18.005 21.092 18.2537 20.7858C18.5024 20.4795 18.8247 20.2414 19.1905 20.0935L19.8333 19.8333L19.1905 19.5732C18.8247 19.4256 18.5022 19.1876 18.2533 18.8816C18.0044 18.5756 17.8371 18.2114 17.7672 17.8232L17.5 16.3333ZM8.16667 1.16667L7.518 4.263C7.18741 5.8416 6.45338 7.30759 5.3875 8.51803C4.32162 9.72846 2.96027 10.642 1.43617 11.1697L0 11.6667L1.43617 12.1637C2.96027 12.6913 4.32162 13.6049 5.3875 14.8153C6.45338 16.0257 7.18741 17.4917 7.518 19.0703L8.16667 22.1667L8.81533 19.0703C9.14593 17.4917 9.87995 16.0257 10.9458 14.8153C12.0117 13.6049 13.3731 12.6913 14.8972 12.1637L16.3333 11.6667L14.8972 11.1697C13.3731 10.642 12.0117 9.72846 10.9458 8.51803C9.87995 7.30759 9.14593 5.8416 8.81533 4.263L8.16667 1.16667Z" fill="url(#paint0_linear_281_650)"></path><defs><linearGradient id="paint0_linear_281_650" x1="12.25" y1="0" x2="12.25" y2="23.3333" gradientUnits="userSpaceOnUse"><stop stop-color="#63CCFF"></stop><stop offset="1" stop-color="#45BDEE"></stop></linearGradient></defs></svg> 