<?xml version="1.0" encoding="UTF-8"?> <svg xmlns="http://www.w3.org/2000/svg" width="245" height="260" viewBox="0 0 245 260" fill="none"><g filter="url(#filter0_f_313_279)"><g filter="url(#filter1_di_313_279)"><circle cx="117.102" cy="132.616" r="75.5" transform="rotate(-60 117.102 132.616)" fill="#96D7FF" fill-opacity="0.13" shape-rendering="crispEdges"></circle><circle cx="117.102" cy="132.616" r="75.5" transform="rotate(-60 117.102 132.616)" stroke="url(#paint0_linear_313_279)" stroke-linejoin="round" shape-rendering="crispEdges"></circle></g><g filter="url(#filter2_f_313_279)"><path d="M119.665 66.1873C120.644 67.6703 121.468 59.8864 84.7411 88.5301C77.4086 94.2489 69.7565 99.6459 66.0964 97.2233C62.4363 94.8007 61.8768 87.759 80.1332 76.0163C98.1452 66.9031 106.225 67.7748 119.665 66.1873Z" fill="white"></path><path d="M64.4449 89.8999C66.1367 86.3538 70.434 81.7768 79.0188 76.1441L79.8628 75.5961L79.8839 75.5819L79.9069 75.5702C98.0162 66.4077 106.202 67.2739 119.607 65.6906L119.913 65.6543L120.025 65.8254C120.119 65.8578 120.219 65.9068 120.302 65.9881C120.359 66.0438 120.482 66.1879 120.469 66.4074C120.453 66.6774 120.255 66.8242 120.112 66.8725C119.981 66.9163 119.863 66.9016 119.79 66.8844C119.709 66.8653 119.637 66.8319 119.575 66.7936C119.556 66.782 119.538 66.7684 119.52 66.7553C119.382 66.7557 119.162 66.7728 118.835 66.844C118.325 66.9551 117.585 67.1865 116.539 67.6333C112.339 69.4262 103.406 74.6066 85.0486 88.9242C81.3834 91.7828 77.6066 94.5867 74.2774 96.3705C72.6135 97.262 71.0333 97.9141 69.6153 98.1822C68.1963 98.4505 66.8832 98.3437 65.8202 97.6401C64.8153 96.9749 64.0069 95.9797 63.6915 94.6548C63.3768 93.3325 63.5669 91.7404 64.4449 89.8999Z" stroke="#96D7FF" stroke-opacity="0.18" style="mix-blend-mode:color-burn"></path></g><g filter="url(#filter3_f_313_279)"><path d="M76.6903 168.61C76.9016 167.922 74.2558 169.67 92.6771 173.771C96.355 174.589 100.015 175.591 100.201 177.36C100.386 179.128 98.329 181.118 89.9522 178.437C82.4606 175.154 80.6508 172.403 76.6903 168.61Z" fill="white"></path><path d="M98.4087 180.052C96.8363 180.444 94.3476 180.285 90.5725 179.153L89.8001 178.913L89.7756 178.905L89.752 178.894C82.1604 175.568 80.2791 172.739 76.3444 168.971L76.1216 168.758L76.1768 168.582C76.169 168.538 76.163 168.489 76.1674 168.437C76.1733 168.368 76.2033 168.188 76.3764 168.061C76.5904 167.905 76.8241 167.965 76.9468 168.042C77.0571 168.11 77.1147 168.203 77.1425 168.26C77.1605 168.296 77.1732 168.333 77.1823 168.367C77.208 168.392 77.2432 168.427 77.2939 168.467C77.4411 168.582 77.6871 168.745 78.0852 168.951C79.6918 169.783 83.5816 171.234 92.7855 173.283C94.6231 173.692 96.4964 174.154 97.9384 174.746C98.6588 175.042 99.301 175.382 99.7835 175.784C100.267 176.186 100.633 176.688 100.698 177.307C100.756 177.856 100.639 178.444 100.254 178.953C99.8709 179.459 99.2581 179.841 98.4087 180.052Z" stroke="#96D7FF" stroke-opacity="0.18" style="mix-blend-mode:color-burn"></path></g><g filter="url(#filter4_f_313_279)"><path d="M144.079 148.522C142.562 148.36 141.798 147.54 142.879 107.567C143.095 99.5869 149.169 97.1868 152.773 96.0851C156.376 94.9833 161.347 98.4581 159.156 116.965C155.357 133.874 150.368 138.751 144.079 148.522Z" fill="white"></path><path d="M158.591 98.9609C160.024 102.036 160.707 107.398 159.75 116.165L159.653 117.024L159.65 117.05L159.644 117.075C155.821 134.09 150.768 139.052 144.499 148.792L144.334 149.051L144.026 149.019C143.824 148.997 143.534 148.958 143.259 148.763C142.983 148.568 142.785 148.264 142.631 147.849C142.333 147.043 142.128 145.601 142.006 142.997C141.759 137.753 141.839 127.535 142.379 107.554C142.491 103.419 144.129 100.693 146.227 98.8696C148.306 97.0625 150.81 96.1622 152.627 95.6068C153.631 95.2999 154.75 95.3076 155.818 95.831C156.884 96.3535 157.846 97.3634 158.591 98.9609Z" stroke="#96D7FF" stroke-opacity="0.18" style="mix-blend-mode:color-burn"></path></g></g><g filter="url(#filter5_f_313_279)"><circle cx="123.467" cy="120.75" r="80.5" transform="rotate(90 123.467 120.75)" fill="url(#paint1_linear_313_279)" fill-opacity="0.8"></circle></g><g filter="url(#filter6_f_313_279)"><circle cx="113.134" cy="149.582" r="66" transform="rotate(165 113.134 149.582)" fill="url(#paint2_linear_313_279)" fill-opacity="0.8"></circle></g><defs><filter id="filter0_f_313_279" x="3.96729" y="19.4808" width="226.27" height="226.27" filterUnits="userSpaceOnUse" color-interpolation-filters="sRGB"><feFlood flood-opacity="0" result="BackgroundImageFix"></feFlood><feBlend mode="normal" in="SourceGraphic" in2="BackgroundImageFix" result="shape"></feBlend><feGaussianBlur stdDeviation="5" result="effect1_foregroundBlur_313_279"></feGaussianBlur></filter><filter id="filter1_di_313_279" x="21.0894" y="44.6033" width="183.025" height="181.025" filterUnits="userSpaceOnUse" color-interpolation-filters="sRGB"><feFlood flood-opacity="0" result="BackgroundImageFix"></feFlood><feColorMatrix in="SourceAlpha" type="matrix" values="0 0 0 0 0 0 0 0 0 0 0 0 0 0 0 0 0 0 127 0" result="hardAlpha"></feColorMatrix><feMorphology radius="5" operator="erode" in="SourceAlpha" result="effect1_dropShadow_313_279"></feMorphology><feOffset dx="-8" dy="5"></feOffset><feGaussianBlur stdDeviation="8.5"></feGaussianBlur><feComposite in2="hardAlpha" operator="out"></feComposite><feColorMatrix type="matrix" values="0 0 0 0 0.588235 0 0 0 0 0.843137 0 0 0 0 1 0 0 0 0.68 0"></feColorMatrix><feBlend mode="normal" in2="BackgroundImageFix" result="effect1_dropShadow_313_279"></feBlend><feBlend mode="normal" in="SourceGraphic" in2="effect1_dropShadow_313_279" result="shape"></feBlend><feColorMatrix in="SourceAlpha" type="matrix" values="0 0 0 0 0 0 0 0 0 0 0 0 0 0 0 0 0 0 127 0" result="hardAlpha"></feColorMatrix><feOffset dx="11" dy="-14"></feOffset><feGaussianBlur stdDeviation="6"></feGaussianBlur><feComposite in2="hardAlpha" operator="arithmetic" k2="-1" k3="1"></feComposite><feColorMatrix type="matrix" values="0 0 0 0 0.588235 0 0 0 0 0.843137 0 0 0 0 1 0 0 0 1 0"></feColorMatrix><feBlend mode="normal" in2="shape" result="effect2_innerShadow_313_279"></feBlend></filter><filter id="filter2_f_313_279" x="61.0498" y="63.1219" width="61.9204" height="37.6958" filterUnits="userSpaceOnUse" color-interpolation-filters="sRGB"><feFlood flood-opacity="0" result="BackgroundImageFix"></feFlood><feBlend mode="normal" in="SourceGraphic" in2="BackgroundImageFix" result="shape"></feBlend><feGaussianBlur stdDeviation="1" result="effect1_foregroundBlur_313_279"></feGaussianBlur></filter><filter id="filter3_f_313_279" x="73.5537" y="165.464" width="29.6582" height="17.2812" filterUnits="userSpaceOnUse" color-interpolation-filters="sRGB"><feFlood flood-opacity="0" result="BackgroundImageFix"></feFlood><feBlend mode="normal" in="SourceGraphic" in2="BackgroundImageFix" result="shape"></feBlend><feGaussianBlur stdDeviation="1" result="effect1_foregroundBlur_313_279"></feGaussianBlur></filter><filter id="filter4_f_313_279" x="139.373" y="92.9017" width="23.3223" height="58.6797" filterUnits="userSpaceOnUse" color-interpolation-filters="sRGB"><feFlood flood-opacity="0" result="BackgroundImageFix"></feFlood><feBlend mode="normal" in="SourceGraphic" in2="BackgroundImageFix" result="shape"></feBlend><feGaussianBlur stdDeviation="1" result="effect1_foregroundBlur_313_279"></feGaussianBlur></filter><filter id="filter5_f_313_279" x="22.9673" y="20.2498" width="201" height="201" filterUnits="userSpaceOnUse" color-interpolation-filters="sRGB"><feFlood flood-opacity="0" result="BackgroundImageFix"></feFlood><feBlend mode="normal" in="SourceGraphic" in2="BackgroundImageFix" result="shape"></feBlend><feGaussianBlur stdDeviation="10" result="effect1_foregroundBlur_313_279"></feGaussianBlur></filter><filter id="filter6_f_313_279" x="27.1177" y="63.5652" width="172.033" height="172.033" filterUnits="userSpaceOnUse" color-interpolation-filters="sRGB"><feFlood flood-opacity="0" result="BackgroundImageFix"></feFlood><feBlend mode="normal" in="SourceGraphic" in2="BackgroundImageFix" result="shape"></feBlend><feGaussianBlur stdDeviation="10" result="effect1_foregroundBlur_313_279"></feGaussianBlur></filter><linearGradient id="paint0_linear_313_279" x1="48.7548" y1="182.684" x2="192.602" y2="15.7895" gradientUnits="userSpaceOnUse"><stop stop-color="#96D7FF" stop-opacity="0.81"></stop><stop offset="0.33149" stop-color="#C4C7FF" stop-opacity="0.45"></stop><stop offset="0.661234" stop-color="#AECFFF" stop-opacity="0.26"></stop><stop offset="0.915564" stop-color="#AECFFF" stop-opacity="0.04"></stop></linearGradient><linearGradient id="paint1_linear_313_279" x1="98.8782" y1="40.2498" x2="142.202" y2="191.297" gradientUnits="userSpaceOnUse"><stop stop-color="white"></stop><stop offset="1" stop-color="white" stop-opacity="0"></stop></linearGradient><linearGradient id="paint2_linear_313_279" x1="92.9741" y1="83.5817" x2="128.494" y2="207.422" gradientUnits="userSpaceOnUse"><stop stop-color="white"></stop><stop offset="1" stop-color="white" stop-opacity="0"></stop></linearGradient></defs></svg> 