<?xml version="1.0" encoding="UTF-8"?> <svg xmlns="http://www.w3.org/2000/svg" width="26" height="27" viewBox="0 0 26 27" fill="none"><path d="M12.9995 5C15.099 5 16.8335 6.77291 16.8335 9C16.8335 11.2271 15.099 13 12.9995 13C10.9002 12.9998 9.1665 11.227 9.1665 9C9.1665 6.77302 10.9002 5.00018 12.9995 5Z" stroke="#222222" stroke-linecap="round"></path><path d="M5.3497 18.7203C6.05114 16.3397 8.49558 15.1875 10.9773 15.1875H15.0227C17.5044 15.1875 19.9489 16.3397 20.6503 18.7203C20.8474 19.3892 21.0047 20.1342 21.0788 20.9383C21.1295 21.4883 20.6773 21.9375 20.125 21.9375H5.875C5.32272 21.9375 4.8705 21.4883 4.92117 20.9383C4.99526 20.1342 5.15258 19.3892 5.3497 18.7203Z" stroke="#222222" stroke-linecap="round"></path></svg> 