<svg width="36" height="36" viewBox="0 0 36 36" fill="none" xmlns="http://www.w3.org/2000/svg">
<circle cx="18" cy="18" r="18" fill="#3093BB"/>
<path d="M17.5583 9C19.6583 9 21.4119 10.7625 21.4119 13C21.4119 15.2375 19.6583 17 17.5583 17C15.4585 16.9998 13.7058 15.2373 13.7058 13C13.7058 10.7627 15.4585 9.00022 17.5583 9Z" stroke="white" stroke-width="2" stroke-linecap="round"/>
<path d="M14.8022 20.875H20.3149C22.54 20.875 24.442 21.8922 25.0386 23.6768C25.3044 24.4718 25.5202 25.3815 25.6108 26.375H9.50635C9.59702 25.3815 9.81283 24.4718 10.0786 23.6768C10.6379 22.0038 12.3446 21.0051 14.3892 20.8867L14.8022 20.875Z" stroke="white" stroke-width="2" stroke-linecap="round"/>
</svg>
