<?xml version="1.0" encoding="UTF-8"?> <svg xmlns="http://www.w3.org/2000/svg" width="34" height="10" viewBox="0 0 34 10" fill="none"><path d="M31.9189 4.59424L32.3765 3.99999L33.1483 4.59424L32.3765 5.18849L31.9189 4.59424ZM0.750118 5.34424C0.335905 5.34424 0.000118256 5.00845 0.000118256 4.59424C0.000118256 4.18002 0.335905 3.84424 0.750118 3.84424V4.59424V5.34424ZM26.7241 0.594238L27.1817 -8.70228e-06L32.3765 3.99999L31.9189 4.59424L31.4614 5.18849L26.2666 1.18849L26.7241 0.594238ZM31.9189 4.59424L32.3765 5.18849L27.1817 9.18849L26.7241 8.59424L26.2666 7.99999L31.4614 3.99999L31.9189 4.59424ZM31.9189 4.59424V5.34424H0.750118V4.59424V3.84424H31.9189V4.59424Z" fill="#7E8283"></path></svg> 