<?xml version="1.0" encoding="UTF-8"?> <svg xmlns="http://www.w3.org/2000/svg" width="30" height="30" viewBox="0 0 30 30" fill="none"><path d="M11.8612 0.00375L12.7725 0H17.2275L18.14 0.00375L19.2825 0.01625L19.8237 0.025L20.3463 0.03875L20.85 0.05625L21.335 0.07625L21.8025 0.1025L22.2525 0.13375L22.6838 0.17125L23.1 0.2125C25.275 0.4575 26.7663 0.9825 27.8913 2.1075C29.0162 3.2325 29.5413 4.7225 29.7863 6.89875L29.8288 7.315L29.865 7.7475L29.8962 8.1975L29.9212 8.66375L29.9525 9.39875L29.9675 9.91125L29.9837 10.7162L29.995 11.86L30 13.085L29.9988 17.2262L29.995 18.1388L29.9825 19.2812L29.9738 19.8225L29.96 20.345L29.9425 20.8488L29.9225 21.3338L29.8962 21.8013L29.865 22.2513L29.8275 22.6825L29.7863 23.0988C29.5413 25.2738 29.0162 26.765 27.8913 27.89C26.7663 29.015 25.2762 29.54 23.1 29.785L22.6838 29.8275L22.2513 29.8638L21.8013 29.895L21.335 29.92L20.6 29.9513L20.0875 29.9663L19.2825 29.9825L18.1388 29.9938L16.9137 29.9988L12.7725 29.9975L11.86 29.9938L10.7175 29.9813L10.1762 29.9725L9.65375 29.9588L9.15 29.9413L8.665 29.9212L8.1975 29.895L7.7475 29.8638L7.31625 29.8263L6.9 29.785C4.725 29.54 3.23375 29.015 2.10875 27.89C0.98375 26.765 0.45875 25.275 0.21375 23.0988L0.17125 22.6825L0.135 22.25L0.10375 21.8L0.07875 21.3338L0.0475 20.5988L0.0325 20.0863L0.01625 19.2812L0.005 18.1375L0 16.9125L0.00125 12.7712L0.005 11.8587L0.0175 10.7162L0.02625 10.175L0.04 9.6525L0.0575 9.14875L0.0775 8.66375L0.10375 8.19625L0.135 7.74625L0.1725 7.315L0.21375 6.89875C0.45875 4.72375 0.98375 3.2325 2.10875 2.1075C3.23375 0.9825 4.72375 0.4575 6.9 0.2125L7.31625 0.17L7.74875 0.13375L8.19875 0.1025L8.665 0.0775L9.4 0.04625L9.9125 0.03125L10.7175 0.015L11.8612 0.00375ZM8.4875 9.12375H5.0625C5.225 16.9237 9.125 21.6113 15.9625 21.6113H16.35V17.1488C18.8625 17.3988 20.7625 19.2363 21.525 21.6113H25.075C24.1 18.0613 21.5375 16.0987 19.9375 15.3487C21.5375 14.4237 23.7875 12.1737 24.325 9.12375H21.1C20.4 11.5988 18.325 13.8487 16.35 14.0612V9.12375H13.125V17.7738C11.125 17.2738 8.6 14.8488 8.4875 9.12375Z" fill="#70CFF4"></path></svg> 