<?xml version="1.0" encoding="UTF-8"?> <svg xmlns="http://www.w3.org/2000/svg" width="42" height="42" viewBox="0 0 42 42" fill="none"><g clip-path="url(#clip0_254_317)"><path d="M41.2929 23.5025H20.2334C19.1049 23.4155 17.9876 23.7765 17.1233 24.5072C16.2589 25.2379 15.7171 26.2796 15.6151 27.4067L15.6134 27.4225C15.7169 28.5645 16.2695 29.6188 17.15 30.3535C18.0304 31.0882 19.1665 31.4433 20.3086 31.3408L20.2929 31.3425H41.2929C41.425 31.3547 41.5583 31.3404 41.6849 31.3005C41.8115 31.2605 41.9289 31.1957 42.0301 31.1098C42.1313 31.0239 42.2143 30.9187 42.2744 30.8003C42.3344 30.6819 42.3702 30.5527 42.3796 30.4202V24.4282C42.3453 24.1722 42.2193 23.9372 42.0249 23.767C41.8305 23.5967 41.581 23.5028 41.3226 23.5025H41.2911H41.2929ZM20.2334 29.869C19.7384 29.869 19.2546 29.7222 18.843 29.4473C18.4315 29.1723 18.1108 28.7814 17.9214 28.3242C17.7319 27.8669 17.6824 27.3637 17.7789 26.8783C17.8755 26.3928 18.1138 25.9469 18.4638 25.597C18.8138 25.247 19.2597 25.0086 19.7451 24.9121C20.2306 24.8155 20.7338 24.8651 21.191 25.0545C21.6483 25.2439 22.0391 25.5647 22.3141 25.9762C22.5891 26.3877 22.7359 26.8716 22.7359 27.3665V27.3735C22.7359 28.7525 21.6176 29.869 20.2404 29.869H20.2334ZM5.76611 0V11.207H8.16011V6.419C8.40161 6.4785 8.68161 6.517 8.96861 6.5275H8.97561C9.84067 6.52519 10.6697 6.18065 11.2815 5.56913C11.8934 4.9576 12.2383 4.1288 12.2411 3.26375C12.2353 2.97964 12.1966 2.69717 12.1256 2.422L12.1309 2.44825H25.2419C25.1787 2.71343 25.1423 2.98429 25.1334 3.25675V3.26375C25.1357 4.1288 25.4802 4.95779 26.0917 5.56964C26.7033 6.18149 27.5321 6.52648 28.3971 6.52925C28.6911 6.51875 28.9729 6.48025 29.2424 6.41375L29.2144 6.419V11.207H31.6661V0H5.76611ZM32.6969 9.8455H35.7436C35.5154 9.18247 35.1154 8.59182 34.5845 8.13376C34.0536 7.6757 33.4107 7.36661 32.7214 7.238L32.6969 7.2345V9.8455Z" fill="#7E8283"></path><path d="M20.0742 22.1968H40.9658V15.8321C40.8763 14.8879 40.4195 14.0167 39.6938 13.4062C38.9681 12.7957 38.0315 12.4948 37.086 12.5683H37.0982H3.91825C3.89 12.5375 3.85136 12.5182 3.80975 12.5141C3.5797 12.406 3.38277 12.2383 3.23937 12.0285C3.09597 11.8186 3.01134 11.5742 2.99425 11.3206V11.3171C3.02211 11.0023 3.14548 10.7036 3.34784 10.4609C3.55019 10.2182 3.82188 10.0431 4.1265 9.95909L4.137 9.95734V7.18359C1.84975 7.29209 0 10.5558 0 14.6368V38.7378C0.0902846 39.6808 0.546895 40.5508 1.27171 41.1608C1.99652 41.7707 2.93169 42.072 3.87625 41.9998H3.864H37.044C37.9845 42.0692 38.9149 41.7682 39.6365 41.161C40.3581 40.5539 40.8138 39.6886 40.9062 38.7501L40.908 38.7361V32.3713H20.132C16.7598 32.3713 14.0385 30.0858 14.0385 27.3121C14.0385 24.4841 16.758 22.1986 20.076 22.1986L20.0742 22.1968Z" fill="#7E8283"></path></g><defs><clipPath id="clip0_254_317"><rect width="42" height="42" fill="white"></rect></clipPath></defs></svg> 